<?xml version="1.0" encoding="UTF-8"?>
<svg id="Layer_2" data-name="Layer 2" xmlns="http://www.w3.org/2000/svg" xmlns:xlink="http://www.w3.org/1999/xlink" viewBox="0 0 677.77 166">
  <defs>
    <style>
      .cls-1 {
        clip-path: url(#clippath);
      }

      .cls-2 {
        fill: none;
      }

      .cls-2, .cls-3, .cls-4, .cls-5, .cls-6, .cls-7, .cls-8, .cls-9, .cls-10, .cls-11, .cls-12, .cls-13, .cls-14, .cls-15, .cls-16, .cls-17, .cls-18, .cls-19, .cls-20, .cls-21, .cls-22, .cls-23, .cls-24, .cls-25, .cls-26, .cls-27, .cls-28, .cls-29 {
        stroke-width: 0px;
      }

      .cls-3 {
        fill: url(#linear-gradient);
      }

      .cls-30 {
        clip-path: url(#clippath-1);
      }

      .cls-31 {
        clip-path: url(#clippath-2);
      }

      .cls-32 {
        fill: #002060;
        fill-rule: evenodd;
        stroke: #ffc000;
        stroke-linejoin: round;
        stroke-width: 8px;
      }

      .cls-4 {
        fill: url(#linear-gradient-4);
      }

      .cls-5 {
        fill: url(#linear-gradient-2);
      }

      .cls-6 {
        fill: url(#linear-gradient-3);
      }

      .cls-7 {
        fill: url(#linear-gradient-7);
      }

      .cls-8 {
        fill: url(#linear-gradient-5);
      }

      .cls-9 {
        fill: url(#linear-gradient-6);
      }

      .cls-10 {
        fill: #f3eae2;
      }

      .cls-11 {
        fill: #f7d076;
      }

      .cls-12 {
        fill: #524b30;
      }

      .cls-13 {
        fill: #474b66;
      }

      .cls-14 {
        fill: #275390;
      }

      .cls-15 {
        fill: #544f56;
      }

      .cls-16 {
        fill: #a2a5b1;
      }

      .cls-17 {
        fill: #a38e6a;
      }

      .cls-18 {
        fill: #11396d;
      }

      .cls-19 {
        fill: #122147;
      }

      .cls-20 {
        fill: #d9ab37;
      }

      .cls-21 {
        fill: #ac7e4f;
      }

      .cls-22 {
        fill: #d9c6a3;
      }

      .cls-23 {
        fill: #dacdc5;
      }

      .cls-24 {
        fill: #be9831;
      }

      .cls-25 {
        fill: #bbb8b9;
      }

      .cls-26 {
        fill: #a9822c;
      }

      .cls-27 {
        fill: #f0b953;
      }

      .cls-28 {
        fill: #f5e6c8;
      }

      .cls-29 {
        fill: #6a677d;
      }
    </style>
    <clipPath id="clippath">
      <rect class="cls-2" width="150" height="166"/>
    </clipPath>
    <clipPath id="clippath-1">
      <rect class="cls-2" width="150" height="166"/>
    </clipPath>
    <clipPath id="clippath-2">
      <rect class="cls-2" width="150" height="166"/>
    </clipPath>
    <linearGradient id="linear-gradient" x1="108.26" y1="192.7" x2="57.46" y2="47.27" gradientTransform="translate(1 204.05) scale(1 -1)" gradientUnits="userSpaceOnUse">
      <stop offset="0" stop-color="#fef9f4"/>
      <stop offset=".61" stop-color="#dcd4d2"/>
      <stop offset=".66" stop-color="#d5cfce"/>
      <stop offset="1" stop-color="#9092a4"/>
    </linearGradient>
    <linearGradient id="linear-gradient-2" x1="110.62" y1="120.12" x2="22.6" y2="45.87" gradientTransform="translate(1 204.05) scale(1 -1)" gradientUnits="userSpaceOnUse">
      <stop offset="0" stop-color="#16457e"/>
      <stop offset=".81" stop-color="#09274d"/>
      <stop offset="1" stop-color="#09274d"/>
    </linearGradient>
    <linearGradient id="linear-gradient-3" x1="79.43" y1="118.52" x2="101.82" y2="68.33" gradientTransform="translate(1 204.05) scale(1 -1)" gradientUnits="userSpaceOnUse">
      <stop offset="0" stop-color="#f9ce6e"/>
      <stop offset=".67" stop-color="#efb147"/>
      <stop offset="1" stop-color="#c38e2e"/>
    </linearGradient>
    <linearGradient id="linear-gradient-4" x1="69.72" y1="197.83" x2="23.2" y2="95.87" gradientTransform="translate(1 204.05) scale(1 -1)" gradientUnits="userSpaceOnUse">
      <stop offset="0" stop-color="#4571aa"/>
      <stop offset=".76" stop-color="#0d2f5c"/>
      <stop offset="1" stop-color="#0d2f5c"/>
    </linearGradient>
    <linearGradient id="linear-gradient-5" x1="136.88" y1="93.58" x2="71.72" y2="39.63" gradientTransform="translate(1 204.05) scale(1 -1)" gradientUnits="userSpaceOnUse">
      <stop offset="0" stop-color="#17447e"/>
      <stop offset="1" stop-color="#0c2548"/>
    </linearGradient>
    <linearGradient id="linear-gradient-6" x1="66.57" y1="200.29" x2="18.75" y2="117.04" gradientTransform="translate(1 204.05) scale(1 -1)" gradientUnits="userSpaceOnUse">
      <stop offset="0" stop-color="#f7f0e9"/>
      <stop offset="1" stop-color="#bdb9bd"/>
    </linearGradient>
    <linearGradient id="linear-gradient-7" x1="107.31" y1="129.86" x2="95.79" y2="53.22" gradientTransform="translate(1 204.05) scale(1 -1)" gradientUnits="userSpaceOnUse">
      <stop offset="0" stop-color="#f7f0e8"/>
      <stop offset="1" stop-color="#b4b0b3"/>
    </linearGradient>
  </defs>
  <g id="Layer_1-2" data-name="Layer 1">
    <g class="cls-1">
      <g class="cls-30">
        <g class="cls-31">
          <g>
            <path class="cls-29" d="M17.51,163.34s.06,1.04-.62.76l.32-4.79c-.04,1.25-.19,2.91.32,4.01l-.02.02Z"/>
            <path class="cls-3" d="M141.93,31.2c.24,14.82-2.95,20.28-12.66,30.57-34.47,36.54-92.86,50.8-110.83,101.88-.6.08-.63-.3-.93-.32-.48-1.1-.35-2.76-.32-4.01.07-2.42.22-6.45.62-8.65.09-.54.73-1.99.93-2.78,4.12-16.22,16.61-30.43,28.86-41.37,24.94-22.28,76.81-44.17,85.07-73.79,2.96-6.54,1.55-13.65,1.23-20.38-.04-.75-.19-4.53.47-4.62,5.8,6.26,7.44,15.25,7.57,23.47v-.02Z"/>
            <path class="cls-5" d="M37.58,161.8c-2.91.99-9.77-.17-11.58,0-1.85.17-5.13,1.51-7.57,1.85,17.99-51.08,76.36-65.36,110.83-101.88-5.74,9.47-11.67,18.92-18.53,27.63-15.73,20.02-58.95,61.74-82.74,71.94,0,.84,7.08.3,9.56.47h.02Z"/>
            <path class="cls-6" d="M143.18,34.91c-1.36.02-.3,2.91-.32,3.86-.49,34.08-28.02,65.72-52.18,87.38,21.68-11.84,51.3-37.12,54.96-62.68.22-1.57-.52-3.52.62-3.86v.62c.07,1.29.74,3.36.93,4.79l-.32,3.09c-14.17,47.93-63.81,60.81-94.16,94.93-.07,0,.19.61-1.4.61-.69,0-8.52-1.51-13.74-1.85-2.48-.17-9.56.37-9.56-.47,23.81-10.2,67-51.92,82.74-71.94,6.84-8.71,12.79-18.16,18.53-27.63,9.71-10.29,12.9-15.75,12.66-30.57,1.32.09,1.04,2.67,1.23,3.71h.02Z"/>
            <path class="cls-4" d="M97.78,4.65c-10.72,9.92-22.05,19.13-33.04,28.71-9.27,8.09-19.35,15.36-26.86,25.32-5.74,5.29-10.37,12.29-14.5,18.83-8.35,13.22-14.75,27.89-14.5,43.85.09,6.26,1.04,6.11,2.46,11.11h-.62c-1.47-4.29-5-13.05-5.56-16.67-.34-2.16-.3-4.31-.32-6.49,0-13.57,4.14-26.6,10.2-38.59,3.78-7.49,9.17-15.9,14.5-22.39C42.64,32.4,76.98,5.62,97.78,4.65Z"/>
            <path class="cls-27" d="M113.54,3.41c-1.36,3.08-3.36,5.54-5.56,8.04-4.94,5.59-16.31,15.94-22.22,20.99-11.07,9.45-23.43,17.54-34.12,27.48-20.1,18.7-44.71,55.11-34.43,83.35-4.01-6.06-2.98-18.79-4.01-11.11-.43-10.14,1.29-19.31,4.01-29.03,2.26-8.02,5.63-15.55,8.95-23.15,8.71-15.59,14.62-25.73,27.95-37.98,3.47-3.19,7.92-5.65,10.65-9.56,10.98-9.6,22.32-18.79,33.04-28.71,5.52-.26,10.22,1.58,15.75-.32Z"/>
            <path class="cls-8" d="M146.87,93.88c-2.83,23.9-16.35,43.38-36.74,55.89-3.02,1.87-6.04,3.45-9.27,4.94-15.72,7.29-30.24,9.69-47.54,8.95-.04-.06.02-.37,0-.61,7.23-1.49,39.49-21.53,47.71-26.86,14.43-9.38,38.72-26.6,45.55-42.6l.32.32-.02-.02Z"/>
            <path class="cls-9" d="M15.04,69.79c-6.04,11.99-10.2,25.02-10.2,38.59l-.93.32c-1.1-7.94-1.64-15.75-1.23-23.77C4.6,52.29,27.07,24.29,55.95,10.51c2.74-1.3,9.45-4.12,12.19-4.94,8.99-2.68,18.48-3.15,27.78-2.63-29.64,6.66-62.92,34.15-78.11,60.2-1.42,2.44-3.95,6.84-2.78,6.64l.02.02Z"/>
            <path class="cls-7" d="M149.35,75.67c.34,5.93-.34,11.39-2.46,16.98-.06.13-.09.43-.32.93-6.81,16.01-31.12,33.24-45.55,42.6-8.2,5.33-40.47,25.35-47.71,26.86-.19.04-.43-.02-.62,0,30.35-34.12,80-47.02,94.16-94.93l.32-3.09c-.19-1.42-.84-3.49-.93-4.79.2,0,.54-.09.61.15.26.73,2.39,13.74,2.46,15.29h.02Z"/>
            <path class="cls-27" d="M133.91,12.37c.32,6.73,1.73,13.83-1.23,20.38-3.99,10.66-11.61,19.54-20.23,26.86-21.01,17.88-70.56,42.02-85.68,62.06l-.93-.32c3.62-4.16,6.51-7.72,10.5-11.73,17.88-15.27,34.3-32.03,52.8-46.63,5.24-4.12,11.05-7.51,16.2-11.73,7.64-6.26,18.83-17.28,19.61-27.16,1.36-3.9,2.03-9.86,1.55-13.89,2.59.62,6.86,1.03,7.4,2.16l.02-.02Z"/>
            <path class="cls-10" d="M143.18,34.91c1.43,8.17,2.52,16.44,3.09,24.7-1.14.34-.39,2.29-.61,3.86-3.65,25.56-33.28,50.84-54.96,62.68,24.16-21.64,51.7-53.28,52.18-87.38,0-.95-1.06-3.84.32-3.86h-.02Z"/>
            <path class="cls-10" d="M115.7,2.49c-4.96,28.06-28.62,35.66-34.27,41.69-5.15,2.78-9.99,5.98-14.82,9.27-2.8,1.9-5.8,3.45-8.48,5.56-4.42,3.47-6.41,7.57-7.57,5.26,8.46-8.71,13.76-12.01,21.77-19.15,4.53-4.05,8.91-8.3,13.42-12.34,7.62-6.82,16.13-12.88,22.22-21.31,2.2-2.48,4.21-4.96,5.56-8.04l.76-.93c.34-.21,1.32.02,1.4,0Z"/>
            <path class="cls-10" d="M126.49,10.21c.5,4.05-.17,9.99-1.55,13.89-1.86,5.29-4.64,7.4-8.33,11.11-4.46.37-9.28,2.18-13.89,3.09,7.08-6.28,13.22-13.83,16.37-22.86,1.49-3.34,2.41-6.49,2.46-10.2-.54-12.66,4.49,1.23,4.94,4.94v.02Z"/>
            <path class="cls-27" d="M68.14,5.57c-2.74.82-9.45,3.64-12.19,4.94C27.07,24.29,4.6,52.29,2.68,84.91l-.62-1.08c.19,6.1-1.17,4.96-1.23,5.26-.26,1.51.45,3.97-.32,5.41-.15-6.02.17-11.93.93-17.92,1.58-8.58,4.03-14.62,6.79-22.54.91-.91,1.08-2.27,1.55-3.39C17.95,30.49,44.11,10.86,64.9,5.57c.97-.24,2.96-.78,3.24,0Z"/>
            <path class="cls-11" d="M121.55,5.27c-.08,3.71-.97,6.84-2.46,10.2-6.47,14.5-25.6,22.04-38.29,30.26-1.1.43.22-1.12.62-1.55,5.65-6.02,29.31-13.61,34.26-41.69,1.79-.75,3.54-1.34,5.41-1.85.75.28.49,3.84.47,4.62Z"/>
            <path class="cls-11" d="M111.06,151.3l-.93-1.55c20.4-12.51,33.89-31.99,36.74-55.89,0-.06.86-.58,0-1.23,2.12-5.59,2.8-11.06,2.46-16.98,2.48,12.73-2.55,33.39-8.65,44.93-3.67,6.93-12.1,17.6-18.06,22.69-.02.02-.37-.52-.62-.32-4.06,3.41-6.1,5.44-10.96,8.33l.02.02Z"/>
            <path class="cls-20" d="M109.82,151.91c-.47,1.81-12.23,6.95-15.12,8.04-8.2,3.02-16.91,4.62-25.63,4.94-2.29.07-14.82.21-15.75-1.23,17.32.75,31.82-1.66,47.54-8.95.19.41.3,1.73.47,1.85.41.26,7.4-4.01,8.48-4.62l.02-.02Z"/>
            <path class="cls-15" d="M.52,94.49c.34,13.93,3.56,27.8,10.81,39.82,0,0-.34-.07-.32.32-1.23-2.83-3.75-5.85-4.94-8.8C0,110.73-1.49,92.5,1.45,76.58c-.76,5.98-1.08,11.88-.93,17.92Z"/>
            <path class="cls-29" d="M94.71,159.22c4.08.78-9.49,4.27-11.26,4.62-3.13.63-12.23,1.94-8.65.32h-5.7c8.72-.32,17.41-1.92,25.63-4.94h-.02Z"/>
            <path class="cls-13" d="M11.24,130.61c.58,2.03,1.64,3.86.63,4.27.35.69,1.42,1.92,1.58,2.37,1.04,2.7,2.95,9.01,5.07,10.12h.32c-.21.82-.86,2.29-.95,2.85-2.11-2.54-6.56-11.63-6.02-14.73-.58-1.6-.86-1.53-.95-1.73-.04-.39.3-.3.32-.32.5-.5-.43-2.27-.63-2.85h.63v.02Z"/>
            <path class="cls-27" d="M111.06,151.3c-.86.5-1.17.58-1.23.62-1.08.62-8.09,4.9-8.48,4.62-.17-.11-.28-1.46-.47-1.85,3.22-1.49,6.23-3.08,9.27-4.94l.93,1.55h-.02Z"/>
            <path class="cls-17" d="M8.26,54.04c.32-.93.35-2.72,1.55-3.39-.45,1.12-.63,2.48-1.55,3.39Z"/>
            <path class="cls-19" d="M18.75,147.38h-.32c-.52-1.75-.39-3.15-.32-4.94.35-7.64,4.05-15.21,8.65-21.31,15.12-20.04,64.67-44.18,85.68-62.06,8.61-7.33,16.24-16.18,20.23-26.86-8.26,29.62-60.12,51.51-85.07,73.79-12.27,10.94-24.74,25.17-28.86,41.37v.02Z"/>
            <path class="cls-25" d="M26.47,78.74l-.32,1.23c-3.32,7.61-6.71,15.14-8.95,23.15-2.4.73-4.47,8.69-5.56,11.26-.76,1.83-2.11,2.01-2.16,2.16-.35.95.67,4.06-.62,3.86-.24-15.96,6.17-30.63,14.5-43.85,2.26-.52,2.13.75,3.09,2.16v.02Z"/>
            <path class="cls-16" d="M17.21,103.15c-2.72,9.71-4.44,18.89-4.01,29.03.07,1.96.15,3.91.32,5.87-.17-.45-1.19-1.64-1.55-2.31.97-.41-.06-2.2-.62-4.18-1.44-5-2.37-4.87-2.46-11.11,1.29.21.26-2.91.62-3.86.06-.15,1.38-.34,2.16-2.16,1.08-2.57,3.15-10.55,5.56-11.26l-.02-.02Z"/>
            <path class="cls-24" d="M2.68,84.91c-.41,8.02.13,15.83,1.23,23.77.28,2.05.24,4.27,1.23,6.17.56,3.64,4.08,12.4,5.56,16.67.19.58,1.1,2.29.62,2.78C4.08,122.29.88,108.42.52,94.49c.75-1.44.04-3.9.32-5.41.06-.3,1.42.86,1.23-5.26l.62,1.08Z"/>
            <path class="cls-23" d="M26.47,78.74c-.95-1.42-.84-2.68-3.09-2.16,4.14-6.56,8.76-13.53,14.5-18.83.88-.82,1.83-1.57,2.63-2.46-4.6,7.46-10.12,15.25-14.06,23.47l.02-.02Z"/>
            <path class="cls-28" d="M26.16,79.97l.32-1.23c3.93-8.22,9.45-16.01,14.06-23.47-.8.91-1.73,1.66-2.63,2.46,7.49-9.96,17.6-17.23,26.86-25.32-2.74,3.93-7.18,6.38-10.65,9.56-13.31,12.25-19.22,22.39-27.95,37.98l-.02.02Z"/>
            <path class="cls-22" d="M4.85,108.38c0,2.18-.02,4.32.32,6.49-.99-1.92-.95-4.12-1.23-6.17l.93-.32h-.02Z"/>
            <path class="cls-19" d="M86.45,32.75c-4.53,4.05-8.89,8.31-13.42,12.34-8.02,7.12-13.31,10.44-21.77,19.15-6.99,7.2-13.18,14.77-17.75,23.77,7.23-7.83,14.58-15.6,22.69-22.54-.71.8-3.58,3.62-3.71,4.18-.69,3.17,2.14,2.09,1.85,3.39-.19.8-11.54,8.67-12.04,11.26-5.69,5.82-15.12,17.82-18.21,25.17-4.34,10.31,1.16-.43,3.39-3.71,6.62-9.68,17.51-20.43,26.55-27.95-2.24,3.82.39,2.76-.93,5.7,3.45,1.99,4.12-1.27,4.33.15-1.57,1.21-4.85,3.54-5.87,4.94-12.92,9.81-24.85,21.74-30.26,37.36-1.9,5.5-3.75,11.22-3.08,17.15l-.34.09c-10.23-28.24,14.35-64.63,34.43-83.31,10.68-9.94,23.04-18.03,34.12-27.48v.32l.04.02Z"/>
            <path class="cls-26" d="M17.21,143.95l.32-.32h.62c-.09,1.79-.22,3.19.32,4.94-2.07-1.1-3.91-7.23-4.94-9.88-.15-1.96-.22-3.91-.32-5.87,1.03-7.68,0,5.05,4.01,11.11v.02Z"/>
            <path class="cls-21" d="M86.45,32.75v-.32c5.93-5.05,17.3-15.4,22.22-20.99-6.1,8.41-14.62,14.47-22.22,21.31Z"/>
            <path class="cls-12" d="M146.87,93.88l-.32-.32c.21-.5.26-.78.32-.93.86.67,0,1.17,0,1.23v.02Z"/>
            <path class="cls-14" d="M89.13,63.01c-2.2,1.38-4.6,2.61-6.79,4.01-.76-.58-2.22.06-2.31,0-.21-.09-3.28-2.89-3.24-3.24.04-.37,1.47-2.24,1.85-2.93,13.83-8.39,26.47-14.04,37.98-25.63,3.69-3.73,6.49-5.82,8.33-11.11-.78,9.9-11.97,20.9-19.61,27.16-5.15,4.21-10.98,7.61-16.2,11.73v.02Z"/>
            <path class="cls-25" d="M50.86,88.62c-.48.65-.95,1.21-1.23,2.01,2.7,2.82.62,5.61,4.18,2.01l.15.47c-5.65,5.76-11.91,10.79-17.6,16.52-3.99,4.01-6.88,7.57-10.5,11.73-1.83,2.11-2.87,3.71-5.26,4.62,5.41-15.62,17.34-27.54,30.26-37.36Z"/>
            <path class="cls-10" d="M89.13,63.01c-18.48,14.58-34.92,31.36-52.8,46.63,5.69-5.72,11.95-10.76,17.6-16.52l-.15-.47c-3.54,3.6-1.47.8-4.18-2.01.28-.78.76-1.34,1.23-2.01,1.03-1.4,4.31-3.73,5.87-4.94,7.94-6.15,17.15-11.26,25.63-16.67,2.18-1.4,4.59-2.63,6.79-4.01Z"/>
            <path class="cls-25" d="M26.77,122.35c-4.59,6.08-8.28,13.67-8.65,21.31h-.62c-.62-5.87,1.19-11.52,3.09-16.98,2.37-.91,3.41-2.52,5.26-4.62l.93.32-.02-.02Z"/>
            <path class="cls-10" d="M73.08,50.96c-2.72,1.9-5.15,3.8-7.72,5.87-3.5,2.8-6.86,5.26-9.88,8.65-8.11,6.94-15.45,14.71-22.69,22.54,4.59-9.02,10.76-16.57,17.75-23.77,1.14,2.31,3.15-1.79,7.57-5.26,2.7-2.13,5.69-3.65,8.48-5.56-.41,3.34,3.34-2.55,6.49-2.46v-.02Z"/>
            <path class="cls-28" d="M81.41,44.16c-.39.41-1.72,1.98-.62,1.55-2.59,1.68-5.18,3.49-7.72,5.26-3.15-.09-6.9,5.8-6.49,2.46,4.83-3.26,9.68-6.49,14.82-9.27Z"/>
            <path class="cls-14" d="M102.72,38.31c-5.07,4.49-24.63,18.75-30.26,21.61-.26.13-2.07.63-3.86,1.85-2.63-5.11-4.25-2.95-3.24-4.94,2.57-2.05,5-3.97,7.72-5.87,2.54-1.77,5.13-3.56,7.72-5.26,12.7-8.22,31.8-15.75,38.29-30.26-3.15,9-9.28,16.57-16.37,22.86v.02Z"/>
            <path class="cls-11" d="M116.61,35.21c-11.5,11.6-24.14,17.23-37.98,25.63-3.5,2.13-7.18,3.99-10.65,6.17-3.5,2.22-8.87,6.77-11.89,8.33-.47.24-2.01.26-2.63,1.55-.62.11-.54-.75-.47-1.08.26-1.04,13.72-10.46,15.12-12.81,1.45-1.01,3.06-1.85,4.33-3.09,5.63-2.87,25.19-17.11,30.26-21.61,4.6-.91,9.43-2.72,13.89-3.09h.02Z"/>
            <path class="cls-18" d="M78.64,60.84c-.39.69-1.81,2.55-1.85,2.93-.04.35,3.02,3.15,3.24,3.24.11.06,1.55-.58,2.31,0-8.46,5.41-17.69,10.53-25.63,16.67-.21-1.42-.88,1.85-4.33-.15,1.32-2.95-1.32-1.88.93-5.7.95-.78,2.07-1.42,2.78-2.46,3-1.57,8.39-6.11,11.89-8.33,3.47-2.2,7.16-4.05,10.65-6.17v-.02Z"/>
            <path class="cls-10" d="M56.1,75.35c-.71,1.04-1.83,1.68-2.78,2.46-9.04,7.49-19.95,18.27-26.55,27.95-2.24,3.26-7.74,14.02-3.39,3.71,3.09-7.33,12.53-19.35,18.21-25.17,6.88-7.05,18.33-15.64,26.55-21.31-1.4,2.35-14.86,11.76-15.12,12.81-.09.34-.15,1.19.47,1.08.6-1.29,2.16-1.31,2.63-1.55l-.02.02Z"/>
            <path class="cls-18" d="M65.36,56.82c-1.01,1.99.62-.17,3.24,4.94,1.79-1.21,3.6-1.72,3.86-1.85-1.27,1.25-2.87,2.09-4.33,3.09-8.22,5.67-19.67,14.26-26.55,21.31.5-2.61,11.86-10.46,12.04-11.26.28-1.31-2.54-.22-1.85-3.39.11-.54,2.98-3.36,3.71-4.18,3.02-3.39,6.38-5.84,9.88-8.65l-.02-.02Z"/>
          </g>
        </g>
      </g>
    </g>
    <path class="cls-32" d="M522.39,46.64c6.32,0,12.4,1.74,18.25,5.23l-8.58,24.16c-4.67-3.02-9.01-4.53-13.02-4.53s-7.17,1.06-9.86,3.2c-2.7,2.14-4.82,6-6.37,11.59-1.54,5.59-2.31,17.29-2.31,35.11v32.36h-27.72V49.01h25.74v14.89c4.41-7.03,8.37-11.67,11.89-13.91,3.52-2.23,7.51-3.35,11.98-3.35ZM385.35,42.89l-19.53,53.66h39.46l-19.93-53.66ZM581.75,33.62v95.77h21.8c8.15,0,14.03-.46,17.65-1.38,4.74-1.18,8.66-3.19,11.79-6.01,3.12-2.83,5.67-7.48,7.64-13.96,1.97-6.48,2.96-15.31,2.96-26.48s-.99-19.76-2.96-25.75c-1.97-5.98-4.73-10.65-8.28-14-3.55-3.36-8.06-5.62-13.52-6.81-4.07-.92-12.06-1.38-23.96-1.38h-13.12ZM552.55,9.16h53.36c12.04,0,21.21.92,27.52,2.76,8.48,2.5,15.75,6.94,21.8,13.32,6.05,6.38,10.65,14.18,13.81,23.42,3.15,9.24,4.73,20.63,4.73,34.18,0,11.9-1.48,22.16-4.44,30.77-3.61,10.52-8.77,19.04-15.48,25.55-5.07,4.93-11.9,8.78-20.52,11.54-6.44,2.04-15.06,3.06-25.84,3.06h-54.94V9.16ZM370.26,9.16h30.88l57.89,144.6h-31.76l-12.62-32.85h-57.8l-11.94,32.85h-30.97L370.26,9.16ZM183.22,9.16h29.19v56.91h57.21V9.16h29.2v144.6h-29.2v-63.23h-57.21v63.23h-29.19V9.16Z"/>
  </g>
</svg>